<?xml version="1.0" encoding="UTF-8" standalone="no"?>
<!-- Generator: Adobe Illustrator 19.1.0, SVG Export Plug-In . SVG Version: 6.00 Build 0)  -->

<svg
   xmlns:dc="http://purl.org/dc/elements/1.1/"
   xmlns:cc="http://creativecommons.org/ns#"
   xmlns:rdf="http://www.w3.org/1999/02/22-rdf-syntax-ns#"
   xmlns:svg="http://www.w3.org/2000/svg"
   xmlns="http://www.w3.org/2000/svg"
   xmlns:sodipodi="http://sodipodi.sourceforge.net/DTD/sodipodi-0.dtd"
   xmlns:inkscape="http://www.inkscape.org/namespaces/inkscape"
   version="1.1"
   x="0px"
   y="0px"
   viewBox="0 0 48 42"
   xml:space="preserve"
   id="svg3414"
   inkscape:version="0.91 r13725"
   sodipodi:docname="circle-icons-camera.svg"
   width="48"
   height="42"><metadata
     id="metadata3452"><rdf:RDF><cc:Work
         rdf:about=""><dc:format>image/svg+xml</dc:format><dc:type
           rdf:resource="http://purl.org/dc/dcmitype/StillImage" /><dc:title></dc:title></cc:Work></rdf:RDF></metadata><defs
     id="defs3450" /><sodipodi:namedview
     pagecolor="#ffffff"
     bordercolor="#666666"
     borderopacity="1"
     objecttolerance="10"
     gridtolerance="10"
     guidetolerance="10"
     inkscape:pageopacity="0"
     inkscape:pageshadow="2"
     inkscape:window-width="1920"
     inkscape:window-height="1031"
     id="namedview3448"
     showgrid="false"
     fit-margin-top="4"
     fit-margin-left="4"
     fit-margin-right="4"
     fit-margin-bottom="4"
     inkscape:zoom="13.328125"
     inkscape:cx="29.181712"
     inkscape:cy="21.23095"
     inkscape:window-x="0"
     inkscape:window-y="25"
     inkscape:window-maximized="1"
     inkscape:current-layer="svg3414" /><style
     type="text/css"
     id="style3416">
	.st0{fill:#E0995E;}
	.st1{opacity:0.2;}
	.st2{fill:#231F20;}
	.st3{fill:#4F5D73;}
	.st4{fill:#77B3D4;}
	.st5{fill:#FFFFFF;}
</style><g
     id="g3423"
     transform="translate(-8,-11)"><g
       style="opacity:0.2"
       id="g3425"
       class="st1"><path
         style="fill:#231f20"
         inkscape:connector-curvature="0"
         id="path3427"
         d="m 49.5,22.3 -5,0 c 0,0 -1.4,0 -2.5,-2.7 -0.5,-1.4 -1.1,-2.7 -2.5,-2.7 l -10,0 c -1.4,0 -2,1.3 -2.5,2.7 -1,2.7 -2.5,2.7 -2.5,2.7 l -2.5,0 c 0,-1.5 -1.1,-2.7 -2.5,-2.7 l -2.5,0 c -1.4,0 -2.5,1.2 -2.5,2.7 -1.4,0 -2.5,1.2 -2.5,2.7 l 0,21.3 c 0,1.5 1.1,2.7 2.5,2.7 l 35,0 C 50.9,49 52,47.8 52,46.3 L 52,25 c 0,-1.5 -1.1,-2.7 -2.5,-2.7 z"
         class="st2" /></g><g
       id="g3429"><path
         style="fill:#4f5d73"
         inkscape:connector-curvature="0"
         id="path3431"
         d="m 49.5,20 -5,0 c 0,0 -1.4,0.3 -2.5,-2.3 C 41.5,16.3 40.9,15 39.5,15 l -10,0 c -1.4,0 -2,1.3 -2.5,2.7 -1,2.7 -2.5,2.3 -2.5,2.3 L 22,20 c 0,-1.5 -1.1,-2 -2.5,-2 L 17,18 c -1.4,0 -2.5,0.5 -2.5,2 -1.4,0 -2.5,1.5 -2.5,3 l 0,21.3 c 0,1.5 1.1,2.7 2.5,2.7 l 35,0 C 50.9,47 52,45.8 52,44.3 L 52,23 c 0,-1.5 -1.1,-3 -2.5,-3 z"
         class="st3" /></g><g
       id="g3433"><circle
         style="fill:#77b3d4"
         id="circle3435"
         r="9"
         cy="33"
         cx="34"
         class="st4" /></g><g
       style="opacity:0.2"
       id="g3437"
       class="st1"><g
         id="g3439"><path
           style="fill:#231f20"
           inkscape:connector-curvature="0"
           id="path3441"
           d="m 34,46 c -6.1,0 -11,-4.9 -11,-11 0,-6.1 4.9,-11 11,-11 6.1,0 11,4.9 11,11 0,6.1 -4.9,11 -11,11 z m 0,-18 c -3.9,0 -7,3.1 -7,7 0,3.9 3.1,7 7,7 3.9,0 7,-3.1 7,-7 0,-3.9 -3.1,-7 -7,-7 z"
           class="st2" /></g></g><g
       id="g3443"><path
         style="fill:#ffffff"
         inkscape:connector-curvature="0"
         id="path3445"
         d="m 34,43.5 c -5.8,0 -10.5,-4.7 -10.5,-10.5 0,-5.8 4.7,-10.5 10.5,-10.5 5.8,0 10.5,4.7 10.5,10.5 0,5.8 -4.7,10.5 -10.5,10.5 z m 0,-18 c -4.1,0 -7.5,3.4 -7.5,7.5 0,4.1 3.4,7.5 7.5,7.5 4.1,0 7.5,-3.4 7.5,-7.5 0,-4.1 -3.4,-7.5 -7.5,-7.5 z"
         class="st5" /></g></g><g
     id="Layer_2"
     transform="translate(-8,-11)" /></svg>